<svg width="18" height="20" viewBox="0 0 18 20" fill="none" xmlns="http://www.w3.org/2000/svg">
    <path d="M9.94386 1.23421L17.1929 5.06619C18.269 5.63453 18.269 7.176 17.1929 7.74333L15.9068 8.42371L17.1929 9.1041C18.269 9.67244 18.269 11.2139 17.1929 11.7812L15.9068 12.4616L17.1929 13.142C18.269 13.7103 18.269 15.2518 17.1929 15.8191L9.94386 19.6511C9.65302 19.8049 9.329 19.8853 9 19.8853C8.67099 19.8853 8.34698 19.8049 8.05614 19.6511L0.807078 15.8191C-0.269026 15.2508 -0.269026 13.7103 0.807078 13.142L2.09416 12.4616L0.807078 11.7812C-0.269026 11.2129 -0.269026 9.67244 0.807078 9.1041L2.09416 8.42371L0.807078 7.74333C-0.269026 7.17499 -0.269026 5.63453 0.807078 5.06619L8.05614 1.23421C8.34698 1.0804 8.67099 1 9 1C9.329 1 9.65302 1.0804 9.94386 1.23421ZM13.7466 13.6033L9.94386 15.6132C9.65302 15.767 9.329 15.8474 9 15.8474C8.67099 15.8474 8.34698 15.767 8.05614 15.6132L4.25344 13.6044L2.59486 14.4806L9 17.8664L15.4061 14.4806L13.7466 13.6033ZM13.7466 9.56543L9.94386 11.5763C9.68013 11.7156 9.38883 11.7947 9.09088 11.808C8.79293 11.8212 8.49574 11.7683 8.22068 11.653L8.05614 11.5763L4.25344 9.56543L2.59486 10.4437L9 13.8274L15.4061 10.4427L13.7466 9.56543ZM9 3.01897L2.59486 6.40476L9 9.79055L15.4061 6.40476L9 3.01897Z" fill="#454848"/>
</svg>
