<svg width="18" height="18" viewBox="0 0 18 18" fill="none" xmlns="http://www.w3.org/2000/svg">
    <path d="M3.15 8.1L8.1 0L13.05 8.1H3.15ZM13.05 18C11.925 18 10.9686 17.6064 10.1808 16.8192C9.3936 16.0314 9 15.075 9 13.95C9 12.825 9.3936 11.8686 10.1808 11.0808C10.9686 10.2936 11.925 9.9 13.05 9.9C14.175 9.9 15.1314 10.2936 15.9192 11.0808C16.7064 11.8686 17.1 12.825 17.1 13.95C17.1 15.075 16.7064 16.0314 15.9192 16.8192C15.1314 17.6064 14.175 18 13.05 18ZM0 17.55V10.35H7.2V17.55H0ZM13.05 16.2C13.68 16.2 14.2125 15.9825 14.6475 15.5475C15.0825 15.1125 15.3 14.58 15.3 13.95C15.3 13.32 15.0825 12.7875 14.6475 12.3525C14.2125 11.9175 13.68 11.7 13.05 11.7C12.42 11.7 11.8875 11.9175 11.4525 12.3525C11.0175 12.7875 10.8 13.32 10.8 13.95C10.8 14.58 11.0175 15.1125 11.4525 15.5475C11.8875 15.9825 12.42 16.2 13.05 16.2ZM1.8 15.75H5.4V12.15H1.8V15.75ZM6.345 6.3H9.855L8.1 3.465L6.345 6.3Z" fill="#454848"/>
</svg>
