<svg width="18" height="17" viewBox="0 0 18 17" fill="none" xmlns="http://www.w3.org/2000/svg">
    <path d="M11.4722 10.792C12.3414 10.792 13.0468 11.497 13.0468 12.3658L13.0459 13.2309C13.1512 15.2005 11.6863 16.196 9.05808 16.196C6.43972 16.196 4.94879 15.2158 4.94879 13.2651V12.3658C4.94879 11.497 5.65421 10.792 6.5234 10.792H11.4722ZM11.4722 12.141H6.5234C6.46374 12.141 6.40653 12.1646 6.36434 12.2068C6.32216 12.249 6.29846 12.3062 6.29846 12.3658V13.2651C6.29846 14.3227 7.09656 14.847 9.05808 14.847C11.0088 14.847 11.7529 14.3398 11.6971 13.2669V12.3658C11.6971 12.3062 11.6734 12.249 11.6312 12.2068C11.5891 12.1646 11.5318 12.141 11.4722 12.141ZM1.57461 6.29531H5.51205C5.39868 6.73556 5.36968 7.19327 5.42657 7.6443H1.57461C1.51496 7.6443 1.45774 7.66799 1.41555 7.71015C1.37337 7.75232 1.34967 7.80951 1.34967 7.86913V8.76846C1.34967 9.82608 2.14777 10.3504 4.10929 10.3504C4.52499 10.3504 4.8858 10.327 5.19533 10.2811C4.6805 10.6071 4.30455 11.112 4.13989 11.6985L4.10929 11.6994C1.49093 11.6994 0 10.7191 0 8.76846V7.86913C0 7.00038 0.705427 6.29531 1.57461 6.29531ZM16.421 6.29531C17.2902 6.29531 17.9956 7.00038 17.9956 7.86913L17.9947 8.73429C18.1 10.7038 16.6351 11.6994 14.0069 11.6994L13.8548 11.6976C13.6851 11.0951 13.2936 10.5791 12.7589 10.2533C13.1071 10.318 13.521 10.3504 14.0069 10.3504C15.9576 10.3504 16.7017 9.84316 16.6459 8.77026V7.86913C16.6459 7.80951 16.6222 7.75232 16.58 7.71015C16.5379 7.66799 16.4806 7.6443 16.421 7.6443H12.5699C12.6256 7.19319 12.5963 6.73565 12.4835 6.29531H16.421ZM8.99779 4.49665C9.35228 4.49665 9.70329 4.56643 10.0308 4.70202C10.3583 4.83761 10.6559 5.03634 10.9065 5.28687C11.1572 5.5374 11.356 5.83483 11.4917 6.16216C11.6273 6.4895 11.6971 6.84033 11.6971 7.19464C11.6971 7.54894 11.6273 7.89978 11.4917 8.22711C11.356 8.55445 11.1572 8.85187 10.9065 9.1024C10.6559 9.35294 10.3583 9.55167 10.0308 9.68726C9.70329 9.82284 9.35228 9.89263 8.99779 9.89263C8.28189 9.89263 7.5953 9.60838 7.08907 9.1024C6.58285 8.59643 6.29846 7.91019 6.29846 7.19464C6.29846 6.47909 6.58285 5.79284 7.08907 5.28687C7.5953 4.7809 8.28189 4.49665 8.99779 4.49665ZM8.99779 5.84564C8.82055 5.84564 8.64505 5.88054 8.4813 5.94833C8.31755 6.01612 8.16876 6.11549 8.04343 6.24075C7.91811 6.36602 7.81869 6.51473 7.75086 6.6784C7.68304 6.84207 7.64813 7.01749 7.64813 7.19464C7.64813 7.37179 7.68304 7.54721 7.75086 7.71088C7.81869 7.87454 7.91811 8.02326 8.04343 8.14852C8.16876 8.27379 8.31755 8.37315 8.4813 8.44095C8.64505 8.50874 8.82055 8.54363 8.99779 8.54363C9.35575 8.54363 9.69904 8.40151 9.95216 8.14852C10.2053 7.89554 10.3475 7.55241 10.3475 7.19464C10.3475 6.83686 10.2053 6.49374 9.95216 6.24075C9.69904 5.98777 9.35575 5.84564 8.99779 5.84564ZM4.04901 0C4.76492 0 5.4515 0.284252 5.95773 0.790223C6.46395 1.29619 6.74835 1.98244 6.74835 2.69799C6.74835 3.41354 6.46395 4.09978 5.95773 4.60576C5.4515 5.11173 4.76492 5.39598 4.04901 5.39598C3.3331 5.39598 2.64651 5.11173 2.14029 4.60576C1.63406 4.09978 1.34967 3.41354 1.34967 2.69799C1.34967 1.98244 1.63406 1.29619 2.14029 0.790223C2.64651 0.284252 3.3331 0 4.04901 0ZM13.9466 0C14.6625 0 15.3491 0.284252 15.8553 0.790223C16.3615 1.29619 16.6459 1.98244 16.6459 2.69799C16.6459 3.41354 16.3615 4.09978 15.8553 4.60576C15.3491 5.11173 14.6625 5.39598 13.9466 5.39598C13.2307 5.39598 12.5441 5.11173 12.0379 4.60576C11.5316 4.09978 11.2472 3.41354 11.2472 2.69799C11.2472 1.98244 11.5316 1.29619 12.0379 0.790223C12.5441 0.284252 13.2307 0 13.9466 0ZM4.04901 1.34899C3.69105 1.34899 3.34776 1.49112 3.09465 1.74411C2.84154 1.99709 2.69934 2.34021 2.69934 2.69799C2.69934 3.05576 2.84154 3.39889 3.09465 3.65187C3.34776 3.90486 3.69105 4.04698 4.04901 4.04698C4.40696 4.04698 4.75026 3.90486 5.00337 3.65187C5.25648 3.39889 5.39868 3.05576 5.39868 2.69799C5.39868 2.34021 5.25648 1.99709 5.00337 1.74411C4.75026 1.49112 4.40696 1.34899 4.04901 1.34899ZM13.9466 1.34899C13.5886 1.34899 13.2453 1.49112 12.9922 1.74411C12.7391 1.99709 12.5969 2.34021 12.5969 2.69799C12.5969 3.05576 12.7391 3.39889 12.9922 3.65187C13.2453 3.90486 13.5886 4.04698 13.9466 4.04698C14.3045 4.04698 14.6478 3.90486 14.9009 3.65187C15.1541 3.39889 15.2963 3.05576 15.2963 2.69799C15.2963 2.34021 15.1541 1.99709 14.9009 1.74411C14.6478 1.49112 14.3045 1.34899 13.9466 1.34899Z" fill="#454848"/>
</svg>
