<svg width="20" height="17" viewBox="0 0 20 17" fill="none" xmlns="http://www.w3.org/2000/svg">
    <path d="M17.4358 16.5446L10.4463 9.55509C10.2944 9.40314 10.187 9.23853 10.1242 9.06126C10.0604 8.88399 10.0285 8.69406 10.0285 8.49146C10.0285 8.28887 10.0604 8.09894 10.1242 7.92167C10.187 7.74439 10.2944 7.57979 10.4463 7.42784L17.4358 0.438306C17.7144 0.159738 18.0624 0.01387 18.4797 0.000701293C18.8981 -0.0114544 19.2592 0.134414 19.5631 0.438306C19.8417 0.716875 19.9809 1.07142 19.9809 1.50193C19.9809 1.93245 19.8417 2.28699 19.5631 2.56556L13.6752 8.49146L19.5631 14.4174C19.8417 14.6959 19.987 15.0439 19.9992 15.4612C20.0123 15.8796 19.867 16.2407 19.5631 16.5446C19.2845 16.8232 18.93 16.9625 18.4995 16.9625C18.069 16.9625 17.7144 16.8232 17.4358 16.5446ZM7.40739 16.5446L0.417852 9.55509C0.265906 9.40314 0.15853 9.23853 0.0957258 9.06126C0.0319083 8.88399 0 8.69406 0 8.49146C0 8.28887 0.0319083 8.09894 0.0957258 7.92167C0.15853 7.74439 0.265906 7.57979 0.417852 7.42784L7.40739 0.438306C7.68595 0.159738 8.03442 0.01387 8.45278 0.000701293C8.87012 -0.0114544 9.23074 0.134414 9.53463 0.438306C9.8132 0.716875 9.95249 1.07142 9.95249 1.50193C9.95249 1.93245 9.8132 2.28699 9.53463 2.56556L3.64671 8.49146L9.53463 14.4174C9.8132 14.6959 9.95907 15.0439 9.97224 15.4612C9.9844 15.8796 9.83853 16.2407 9.53463 16.5446C9.25607 16.8232 8.90152 16.9625 8.47101 16.9625C8.04049 16.9625 7.68595 16.8232 7.40739 16.5446Z" fill="#454848"/>
</svg>
