<svg width="18" height="14" viewBox="0 0 18 14" fill="none" xmlns="http://www.w3.org/2000/svg">
    <path d="M16.875 13.5C16.875 13.5 18 13.5 18 12.375C18 11.25 16.875 7.875 12.375 7.875C7.875 7.875 6.75 11.25 6.75 12.375C6.75 13.5 7.875 13.5 7.875 13.5H16.875ZM7.89975 12.375C7.89144 12.3739 7.88318 12.3724 7.875 12.3705C7.87612 12.0735 8.06287 11.2118 8.73 10.4355C9.351 9.70763 10.4423 9 12.375 9C14.3066 9 15.3979 9.70875 16.02 10.4355C16.6871 11.2118 16.8727 12.0746 16.875 12.3705L16.866 12.3728C16.8608 12.3736 16.8555 12.3744 16.8503 12.375H7.89975ZM12.375 5.625C12.9717 5.625 13.544 5.38795 13.966 4.96599C14.3879 4.54403 14.625 3.97174 14.625 3.375C14.625 2.77826 14.3879 2.20597 13.966 1.78401C13.544 1.36205 12.9717 1.125 12.375 1.125C11.7783 1.125 11.206 1.36205 10.784 1.78401C10.3621 2.20597 10.125 2.77826 10.125 3.375C10.125 3.97174 10.3621 4.54403 10.784 4.96599C11.206 5.38795 11.7783 5.625 12.375 5.625ZM15.75 3.375C15.75 3.81821 15.6627 4.25708 15.4931 4.66656C15.3235 5.07603 15.0749 5.44809 14.7615 5.76149C14.4481 6.07488 14.076 6.32348 13.6666 6.49309C13.2571 6.6627 12.8182 6.75 12.375 6.75C11.9318 6.75 11.4929 6.6627 11.0834 6.49309C10.674 6.32348 10.3019 6.07488 9.98851 5.76149C9.67512 5.44809 9.42652 5.07603 9.25691 4.66656C9.0873 4.25708 9 3.81821 9 3.375C9 2.47989 9.35558 1.62145 9.98851 0.988515C10.6214 0.355579 11.4799 0 12.375 0C13.2701 0 14.1286 0.355579 14.7615 0.988515C15.3944 1.62145 15.75 2.47989 15.75 3.375ZM7.803 8.19C7.35298 8.04829 6.88909 7.95514 6.41925 7.91213C6.15525 7.88702 5.89019 7.87463 5.625 7.875C1.125 7.875 0 11.25 0 12.375C0 13.1254 0.374625 13.5 1.125 13.5H5.868C5.70122 13.1488 5.61805 12.7637 5.625 12.375C5.625 11.2388 6.04913 10.0777 6.85125 9.108C7.12463 8.77725 7.443 8.46787 7.803 8.19ZM5.535 9C4.86917 10.0004 4.5095 11.1733 4.5 12.375H1.125C1.125 12.0825 1.3095 11.2163 1.98 10.4355C2.59313 9.72 3.6585 9.0225 5.535 9.00113V9ZM1.6875 3.9375C1.6875 3.04239 2.04308 2.18395 2.67601 1.55101C3.30895 0.918079 4.16739 0.5625 5.0625 0.5625C5.95761 0.5625 6.81605 0.918079 7.44899 1.55101C8.08192 2.18395 8.4375 3.04239 8.4375 3.9375C8.4375 4.83261 8.08192 5.69105 7.44899 6.32399C6.81605 6.95692 5.95761 7.3125 5.0625 7.3125C4.16739 7.3125 3.30895 6.95692 2.67601 6.32399C2.04308 5.69105 1.6875 4.83261 1.6875 3.9375ZM5.0625 1.6875C4.46576 1.6875 3.89347 1.92455 3.47151 2.34651C3.04955 2.76847 2.8125 3.34076 2.8125 3.9375C2.8125 4.53424 3.04955 5.10653 3.47151 5.52849C3.89347 5.95045 4.46576 6.1875 5.0625 6.1875C5.65924 6.1875 6.23153 5.95045 6.65349 5.52849C7.07545 5.10653 7.3125 4.53424 7.3125 3.9375C7.3125 3.34076 7.07545 2.76847 6.65349 2.34651C6.23153 1.92455 5.65924 1.6875 5.0625 1.6875Z" fill="#454848"/>
</svg>
