<svg width="18" height="18" viewBox="0 0 18 18" fill="none" xmlns="http://www.w3.org/2000/svg">
    <path d="M17.5 14.0325V17.5H14V15.75V15.25H13.5H11.75V13.5V13H11.25H9.5V11.6807V10.852L8.76688 11.2383C8.36906 11.448 7.95298 11.6064 7.51784 11.7138C7.08271 11.8212 6.63957 11.875 6.1875 11.875C5.66262 11.875 5.15988 11.8074 4.67777 11.6735C4.19121 11.5384 3.73958 11.3472 3.32138 11.1006C2.90063 10.8524 2.51807 10.5561 2.17289 10.2109C1.8277 9.86571 1.52796 9.47975 1.27345 9.05197C1.02145 8.6284 0.831263 8.17844 0.702482 7.70087C0.573736 7.22344 0.505646 6.71863 0.500001 6.18495C0.500219 5.66099 0.567781 5.1591 0.701486 4.67777C0.836641 4.19121 1.0278 3.73958 1.27443 3.32138C1.52256 2.90063 1.81892 2.51807 2.1641 2.17289C2.50929 1.8277 2.89525 1.52796 3.32303 1.27345C3.7466 1.02145 4.19656 0.831263 4.67413 0.702482C5.15156 0.573736 5.65637 0.505646 6.19005 0.500001C6.71401 0.500219 7.2159 0.567781 7.69723 0.701486C8.18379 0.836641 8.63542 1.0278 9.05363 1.27443C9.47437 1.52256 9.85693 1.81892 10.2021 2.1641C10.5473 2.50929 10.847 2.89525 11.1015 3.32303C11.3535 3.7466 11.5437 4.19656 11.6725 4.67413C11.8013 5.15156 11.8694 5.65638 11.875 6.19006C11.8749 6.46175 11.8535 6.73038 11.811 6.9962C11.7679 7.26559 11.706 7.52925 11.6253 7.78739L11.535 8.07639L11.7492 8.29034L17.5 14.0325ZM17.375 14.2998V14.0927L17.2286 13.9463L11.3896 8.10732C11.4762 7.85638 11.5506 7.60482 11.6125 7.35266C11.7047 6.97751 11.75 6.58871 11.75 6.1875C11.75 5.4254 11.6055 4.70186 11.3141 4.02179C11.0257 3.34886 10.6262 2.75836 10.1159 2.25455C9.60804 1.75308 9.01984 1.35817 8.35481 1.07041C7.68046 0.778628 6.95768 0.631401 6.19167 0.625017V0.625H6.1875C5.4254 0.625 4.70186 0.769477 4.02179 1.06094C3.34886 1.34933 2.75836 1.7488 2.25455 2.25906C1.75308 2.76696 1.35817 3.35516 1.07041 4.02019C0.778628 4.69454 0.631401 5.41732 0.625017 6.18333H0.625V6.1875C0.625 6.9496 0.769477 7.67314 1.06094 8.35321C1.34933 9.02614 1.7488 9.61664 2.25906 10.1204C2.76696 10.6219 3.35516 11.0168 4.02019 11.3046C4.69454 11.5964 5.41732 11.7436 6.18333 11.75V11.75H6.1875C6.81382 11.75 7.42696 11.6432 8.02463 11.4312C8.56579 11.2391 9.06356 10.9702 9.51616 10.625H9.625V12.375V12.875H10.125H11.875V14.625V15.125H12.375H14.125V16.875V17.375H14.625H16.875H17.375V16.875V14.2998ZM4.48078 3.87463L4.49039 3.875H4.5C4.59493 3.875 4.67293 3.89223 4.74009 3.92143C4.81985 3.9561 4.88411 4.0004 4.93746 4.05375C4.99112 4.1074 5.04046 4.17698 5.08258 4.26887C5.11486 4.33932 5.12817 4.40796 5.12537 4.48078L5.125 4.49039V4.5C5.125 4.59493 5.10777 4.67293 5.07857 4.74009C5.0439 4.81985 4.9996 4.88411 4.94625 4.93746C4.8926 4.99112 4.82302 5.04046 4.73113 5.08258C4.66068 5.11486 4.59204 5.12817 4.51922 5.12537L4.50961 5.125H4.5C4.40507 5.125 4.32707 5.10777 4.25991 5.07857C4.18015 5.0439 4.11589 4.9996 4.06254 4.94625C4.00888 4.8926 3.95954 4.82302 3.91742 4.73113C3.88514 4.66068 3.87183 4.59204 3.87463 4.51922L3.875 4.50961V4.5C3.875 4.40507 3.89223 4.32707 3.92143 4.25991C3.9561 4.18015 4.0004 4.11589 4.05375 4.06254C4.1074 4.00888 4.17698 3.95954 4.26887 3.91742C4.33932 3.88514 4.40796 3.87183 4.48078 3.87463Z" fill="#454848" stroke="#454848"/>
</svg>
