<svg width="20" height="17" viewBox="0 0 20 17" fill="none" xmlns="http://www.w3.org/2000/svg">
    <path d="M2.56416 0.417843L9.55369 7.40737C9.70563 7.55932 9.81301 7.72393 9.87581 7.9012C9.93963 8.07847 9.97154 8.2684 9.97154 8.471C9.97154 8.67359 9.93963 8.86353 9.87581 9.0408C9.81301 9.21807 9.70563 9.38268 9.55369 9.53462L2.56416 16.5242C2.28559 16.8027 1.93763 16.9486 1.52028 16.9618C1.10192 16.9739 0.740799 16.828 0.436907 16.5242C0.158339 16.2456 0.0190526 15.891 0.0190526 15.4605C0.0190527 15.03 0.158339 14.6755 0.436907 14.3969L6.32483 8.471L0.436908 2.54509C0.15834 2.26652 0.012977 1.91856 0.000821512 1.50122C-0.0123468 1.08286 0.133016 0.721735 0.436908 0.417843C0.715477 0.139273 1.07002 -1.3099e-05 1.50053 -1.30614e-05C1.93105 -1.30237e-05 2.28559 0.139273 2.56416 0.417843ZM12.5926 0.417844L19.5821 7.40738C19.7341 7.55932 19.8415 7.72393 19.9043 7.9012C19.9681 8.07847 20 8.2684 20 8.471C20 8.67359 19.9681 8.86353 19.9043 9.0408C19.8415 9.21807 19.7341 9.38268 19.5821 9.53462L12.5926 16.5242C12.314 16.8027 11.9656 16.9486 11.5472 16.9618C11.1299 16.9739 10.7693 16.828 10.4654 16.5242C10.1868 16.2456 10.0475 15.891 10.0475 15.4605C10.0475 15.03 10.1868 14.6755 10.4654 14.3969L16.3533 8.471L10.4654 2.54509C10.1868 2.26652 10.0409 1.91857 10.0278 1.50122C10.0156 1.08286 10.1615 0.721736 10.4654 0.417844C10.7439 0.139274 11.0985 -1.22223e-05 11.529 -1.21847e-05C11.9595 -1.2147e-05 12.314 0.139274 12.5926 0.417844Z" fill="#454848"/>
</svg>
