<svg width="18" height="18" viewBox="0 0 18 18" fill="none" xmlns="http://www.w3.org/2000/svg">
    <path d="M18 14.8696C18 15.6998 17.6702 16.4961 17.0831 17.0831C16.496 17.6702 15.6998 18 14.8695 18H13.3043V16.4348H14.8695C15.2847 16.4348 15.6828 16.2699 15.9763 15.9763C16.2699 15.6828 16.4348 15.2847 16.4348 14.8696C16.4348 14.4544 16.2699 14.0563 15.9763 13.7628C15.6828 13.4693 15.2847 13.3044 14.8695 13.3044H13.3043V11.7391H14.8695C15.6998 11.7391 16.496 12.0689 17.0831 12.656C17.6702 13.2431 18 14.0393 18 14.8696ZM7.04346 14.8696C7.04346 14.0393 7.37327 13.2431 7.96034 12.656C8.54741 12.0689 9.34365 11.7391 10.1739 11.7391H11.7391V13.3044H10.1739C9.75877 13.3044 9.36065 13.4693 9.06712 13.7628C8.77358 14.0563 8.60867 14.4544 8.60867 14.8696C8.60867 15.2847 8.77358 15.6828 9.06712 15.9763C9.36065 16.2699 9.75877 16.4348 10.1739 16.4348H11.7391V18H10.1739C9.34365 18 8.54741 17.6702 7.96034 17.0831C7.37327 16.4961 7.04346 15.6998 7.04346 14.8696Z" fill="#454848"/>
    <path d="M10.9565 14.0869H14.087V15.6522H10.9565V14.0869ZM7.04349 3.91302C6.57914 3.91302 6.12521 4.05072 5.73911 4.30871C5.35301 4.56669 5.05208 4.93337 4.87438 5.36238C4.69668 5.79139 4.65019 6.26346 4.74078 6.71889C4.83137 7.17432 5.05498 7.59267 5.38333 7.92101C5.71168 8.24936 6.13002 8.47297 6.58545 8.56356C7.04089 8.65416 7.51296 8.60766 7.94197 8.42996C8.37097 8.25226 8.73765 7.95133 8.99564 7.56523C9.25362 7.17914 9.39132 6.72521 9.39132 6.26085C9.38946 5.63874 9.1415 5.04264 8.7016 4.60274C8.2617 4.16284 7.6656 3.91488 7.04349 3.91302ZM7.04349 7.04346C6.88871 7.04346 6.7374 6.99756 6.6087 6.91157C6.48 6.82557 6.37969 6.70335 6.32046 6.56034C6.26122 6.41734 6.24572 6.25998 6.27592 6.10817C6.30612 5.95636 6.38065 5.81691 6.4901 5.70746C6.59955 5.59801 6.739 5.52348 6.89081 5.49328C7.04262 5.46308 7.19998 5.47858 7.34298 5.53781C7.48599 5.59705 7.60821 5.69736 7.69421 5.82606C7.7802 5.95476 7.8261 6.10607 7.8261 6.26085C7.82548 6.46822 7.74283 6.66692 7.5962 6.81356C7.44956 6.96019 7.25086 7.04284 7.04349 7.04346ZM4.15567 11.7391C5.01742 11.1827 6.01788 10.8791 7.04349 10.8626C7.24736 10.8652 7.4508 10.8819 7.65236 10.9127C8.40481 10.4301 9.28001 10.1737 10.1739 10.1739H10.3727C9.34726 9.62518 8.2063 9.32747 7.04349 9.3052C5.4548 9.3052 2.34784 10.1426 2.34784 12.1069V13.3043H5.7514C5.95598 12.7268 6.27186 12.195 6.68114 11.7391H4.15567Z" fill="#454848"/>
    <path d="M12.5217 1.56538H9.25043C9.09019 1.10789 8.79173 0.711516 8.39635 0.431077C8.00097 0.150639 7.52822 0 7.04348 0C6.55874 0 6.08598 0.150639 5.69061 0.431077C5.29523 0.711516 4.99677 1.10789 4.83652 1.56538H1.56522C1.15048 1.56661 0.753077 1.73192 0.45981 2.02519C0.166543 2.31845 0.00123866 2.71585 0 3.13059L0 14.0871C0.00123866 14.5019 0.166543 14.8993 0.45981 15.1925C0.753077 15.4858 1.15048 15.6511 1.56522 15.6523H5.58861C5.44103 15.141 5.44103 14.5984 5.58861 14.0871H1.56522V3.13059H12.5217V10.1741H14.087V3.13059C14.0857 2.71585 13.9204 2.31845 13.6271 2.02519C13.3339 1.73192 12.9365 1.56661 12.5217 1.56538ZM7.04348 2.54364C6.88812 2.54261 6.73943 2.48044 6.62957 2.37059C6.51972 2.26073 6.45755 2.11203 6.45652 1.95668C6.45652 1.80101 6.51836 1.65171 6.62844 1.54164C6.73851 1.43156 6.88781 1.36972 7.04348 1.36972C7.19915 1.36972 7.34844 1.43156 7.45852 1.54164C7.56859 1.65171 7.63044 1.80101 7.63044 1.95668C7.62941 2.11203 7.56724 2.26073 7.45739 2.37059C7.34753 2.48044 7.19883 2.54261 7.04348 2.54364Z" fill="#454848"/>
</svg>
