<svg width="18" height="15" viewBox="0 0 18 15" fill="none" xmlns="http://www.w3.org/2000/svg">
    <path d="M8.1 4.5C8.1 5.994 6.894 7.2 5.4 7.2C3.906 7.2 2.7 5.994 2.7 4.5C2.7 3.006 3.906 1.8 5.4 1.8C6.894 1.8 8.1 3.006 8.1 4.5ZM10.8 14.4H0V12.6C0 10.611 2.421 9 5.4 9C8.379 9 10.8 10.611 10.8 12.6M4.5 4.5C4.5 4.995 4.905 5.4 5.4 5.4C5.895 5.4 6.3 4.995 6.3 4.5C6.3 4.005 5.895 3.6 5.4 3.6C4.905 3.6 4.5 4.005 4.5 4.5ZM1.8 12.6H9C9 11.61 7.389 10.8 5.4 10.8C3.411 10.8 1.8 11.61 1.8 12.6ZM18 7.2V9H9.9V7.2M18 3.6V5.4H9.9V3.6M18 0V1.8H9.9V0H18Z" fill="#454848"/>
</svg>
